<?xml version="1.0" encoding="utf-8"?>
<!-- Generator: Adobe Illustrator 16.0.4, SVG Export Plug-In . SVG Version: 6.00 Build 0)  -->
<!DOCTYPE svg PUBLIC "-//W3C//DTD SVG 1.1//EN" "http://www.w3.org/Graphics/SVG/1.1/DTD/svg11.dtd">
<svg version="1.1" id="Layer_1" xmlns="http://www.w3.org/2000/svg" xmlns:xlink="http://www.w3.org/1999/xlink" x="0px" y="0px"
	 width="106.889px" height="60.779px" viewBox="0 0 106.889 60.779" enable-background="new 0 0 106.889 60.779"
	 xml:space="preserve">
<g>
	<path fill="#CC0000" d="M42.371,9.593h0.029h0.294H62.59h0.915l0.457-0.002c-0.01-0.116,0.006-0.364,0.243-0.753H62.9
		c-0.038,0-0.081,0-0.122,0c-0.047,0-0.09,0-0.138,0H43.368h-0.674c0,0-0.002,0-0.008,0c-0.004,0-0.01,0-0.012,0
		c-0.027,0-0.078,0-0.15,0h-0.341c0.096,0.206,0.188,0.476,0.188,0.751C42.371,9.591,42.371,9.591,42.371,9.593z M67.377,11.783
		c-0.667,0.032-0.806-0.213-0.813-0.213c0,0.213,0,0.573,0,0.91c0,0.21,0,0.412,0,0.557c0,0.083,0,0.149,0,0.186l0,0v0.166v5.84l0,0
		c0,0.001,0,0.001,0,0.003c0,0.021,0,0.052,0,0.097c0,0,0.256-0.076,0.707-0.1h0.048v-0.006v-5.76v-0.056l0,0
		C65.777,12.88,67.377,11.783,67.377,11.783z M40.177,11.161l-0.008-0.003c0,0-0.021-0.008-0.022-0.008l-0.333-0.126l-0.126-0.046
		c0.546,0.89-0.512,0.677-0.512,0.677c0.243,0.163,0.418,0.338,0.418,0.338s1.028,0.706-0.316,1.323h0.002l0,0v5.88v0.119l0,0
		c0.362,0.01,0.649,0.079,0.74,0.11c0,0.005,0.003,0.005,0.008,0.007c0.033,0.014,0.276,0.158,0.454,0.293
		c0.06,0.046,0.114,0.088,0.146,0.125c0.008,0.005,0.014,0.007,0.016,0.015c0,0,0.103,0.092,0.188,0.224
		c0.013,0.021,0.026,0.043,0.039,0.065c0.004,0.011,0.013,0.027,0.021,0.038c0.002,0.008,0.006,0.016,0.008,0.021
		c0.006,0.013,0.009,0.024,0.015,0.034l0.002,0.004c0.006,0.012,0.008,0.023,0.012,0.033c0.01,0.03,0.021,0.071,0.034,0.136
		c0.002,0.022,0.006,0.038,0.008,0.058c0.012,0.067,0.021,0.15,0.022,0.257c0,0,0,0.007,0,0.014c0,0.003,0,0.01,0,0.016
		c0,0.023-0.002,0.061-0.009,0.102c-0.004,0.018-0.01,0.032-0.016,0.048c-0.012,0.043-0.034,0.088-0.07,0.122
		c-0.007,0.008-0.018,0.022-0.029,0.026c-0.003,0.004-0.01,0.006-0.012,0.012c-0.006,0.003-0.012,0.005-0.018,0.006
		c-0.002,0.006-0.007,0.007-0.016,0.009c-0.014,0.004-0.021,0.011-0.035,0.014l0,0c-0.013,0.009-0.134,0.056-0.396,0.012
		c0,0-0.011,0.033,0.006,0.085c0.003,0.006,0.008,0.013,0.011,0.02c0.005,0.009,0.007,0.017,0.011,0.02
		c0.005,0.008,0.005,0.015,0.01,0.025l0,0c0.005,0.01,0.018,0.022,0.025,0.035c0.004,0.009,0.012,0.016,0.014,0.021
		c0.008,0.007,0.013,0.012,0.015,0.018c0.013,0.007,0.019,0.021,0.028,0.029c0.004,0.001,0.006,0.007,0.008,0.009
		c0.01,0.011,0.025,0.022,0.038,0.039c0,0,0.008,0.004,0.02,0.015c0.062,0.057,0.271,0.261,0.32,0.356c0,0,0.004,0.011,0.013,0.021
		c0.027,0.048,0.088,0.139,0.108,0.176c0.003,0.006,0.005,0.009,0.005,0.013c0,0,0.043,0.077,0.079,0.182
		c0.014,0.037,0.024,0.081,0.036,0.124c0.002,0.001,0.002,0.003,0.002,0.005c0,0.011,0,0.013,0,0.017
		c0.005,0.01,0.01,0.018,0.01,0.028c0,0,0.001,0.007,0.002,0.02c0,0.005,0.002,0.01,0.006,0.018
		c0.002,0.007,0.002,0.015,0.007,0.027c0.001,0.012,0.001,0.03,0.003,0.04c0.007,0.028,0.011,0.062,0.015,0.092
		c0.014,0.093,0.023,0.206,0.021,0.325c0,0.009,0,0.013,0,0.021c-0.001,0.021-0.003,0.066-0.013,0.123
		c-0.005,0.019-0.006,0.034-0.009,0.052c0,0.001,0,0.001,0,0.002c-0.006,0.022-0.011,0.044-0.017,0.063
		c-0.016,0.068-0.046,0.137-0.088,0.196c-0.003,0.001-0.003,0.006-0.009,0.007c-0.003,0.011-0.013,0.021-0.021,0.029
		c-0.009,0.016-0.024,0.031-0.035,0.04c0,0-0.036,0.046-0.114,0.081c-0.074,0.038-0.188,0.071-0.348,0.056
		c0,0-0.188-0.012-0.451-0.142c-0.018-0.013-0.038-0.022-0.06-0.035c0,0,0,0.016,0,0.042c-0.002,0.024-0.002,0.051-0.002,0.083
		c0,0.034,0,0.074,0.002,0.118c0,0.027,0.002,0.057,0.003,0.086c0.005,0.059,0.013,0.123,0.019,0.182
		c0.001,0.007,0.001,0.014,0.001,0.016c0,0.001,0,0.003,0,0.007c0.031,0.207,0.067,0.387,0.102,0.57
		c0.008,0.03,0.012,0.061,0.018,0.093c0.002,0.006,0.003,0.014,0.003,0.02c0.006,0.039,0.012,0.071,0.021,0.111
		c0.002,0.023,0.007,0.047,0.01,0.067c0.005,0.037,0.01,0.073,0.015,0.11c0.004,0.036,0.006,0.061,0.006,0.076
		c0,0.003,0,0.011,0,0.011c0,0.046-0.006,0.325-0.111,0.502l0,0v-0.002c-0.196,0.229-0.804,0.236-0.846,0.236l0,0l0,0h-0.006v2.493
		h0.002h0.004c-0.002,0.076-0.002,0.147,0,0.221c0.055,3.711,2.912,5.382,2.912,5.382c0.172,0.118,0.336,0.233,0.505,0.344
		c1.112,0.727,2.216,1.279,3.195,1.688c2.01,0.846,3.502,1.101,3.502,1.101c0.276,0.08,0.563,0.15,0.857,0.204
		c2.481,0.466,5.46,0.035,5.46,0.035c0.876-0.181,1.58-0.366,2.104-0.516c0.277-0.08,0.499-0.153,0.679-0.209
		c0.209-0.07,0.351-0.124,0.412-0.148c0.035-0.013,0.049-0.019,0.049-0.019c0.006-0.006,0.014-0.006,0.021-0.007
		c0.586-0.175,1.119-0.354,1.604-0.535c1.822-0.688,2.928-1.406,3.315-1.678c0.105-0.07,0.156-0.116,0.156-0.116
		c1.556-1.186,2.107-1.972,2.251-2.194c0.024-0.049,0.036-0.066,0.036-0.066c0.481-0.743,0.743-1.63,0.86-2.347
		c0.049-0.272,0.076-0.521,0.096-0.733l0.001,0.004c0,0,0-0.213,0.014-0.427c0.002-0.004,0.002-0.005,0.002-0.007
		c0-0.007,0-0.017,0-0.022c0-0.018,0-0.035,0.002-0.055c0.004-0.118,0.008-0.229,0.002-0.301c0-0.01,0-0.016-0.002-0.024
		l0.002-1.274v-0.851l0,0c0,0-0.163,0.15-0.753,0.097v0.197V26v0.003v2.038h0.001c0,2.73-1.68,4.029-1.68,4.029l0.022-0.028
		l-23.68-21.688c0,0,0,0.009,0,0.022c0,0.011,0,0.021,0.001,0.035c0,0.006,0.003,0.012,0.003,0.019v0.004l0.048,0.37l-0.001,0.27
		l-0.002,0.091c0,0,0,0.003-0.002,0.01c0,0.011,0,0.016-0.002,0.018c-0.003,0.02-0.004,0.038-0.01,0.058
		c-0.014,0.045-0.034,0.11-0.063,0.166c0,0,0,0.003,0,0.005c-0.007,0.011-0.023,0.037-0.05,0.066
		c-0.003,0.002-0.007,0.006-0.01,0.008l-0.002,0.003c-0.03,0.022-0.064,0.043-0.112,0.05l0,0c-0.011,0.002-0.019,0.002-0.028,0.003
		c0,0-0.003,0-0.007,0s-0.014,0-0.023,0c-0.002,0-0.006,0-0.008-0.001c-0.004,0-0.004,0-0.004,0c-0.011,0-0.019-0.002-0.026-0.002
		c0,0-0.002,0-0.006,0c-0.01-0.002-0.019-0.002-0.022-0.003c-0.011-0.004-0.028-0.009-0.043-0.014
		c-0.014-0.004-0.024-0.01-0.037-0.012c-0.046-0.018-0.105-0.045-0.178-0.088c0-0.002-0.002-0.005-0.006-0.007l-0.169-0.104
		l-0.091-0.056c0,0-0.056-0.038-0.112-0.068c-0.014-0.006-0.026-0.011-0.045-0.017L40.177,11.161z"/>
	<g>
		<path fill="#CC0000" d="M26.725,10.633c0.708,0.394,1.568,0.82,2.32,1.224c0.584,0.315,1.412,0.631,1.795,0.815
			c0.92,0.435,2.021,0.786,2.876,1.109c1.078,0.412,1.944,0.729,2.842,1.21c-0.054-0.308-0.133-0.626-0.238-0.972
			c-0.214-0.719-2.525-1.536-4.508-2.253c-1.108-0.401-2.113-0.826-2.593-1.051c-0.762-0.359-1.424-0.855-2.208-1.244
			c-0.439-0.228-0.933-0.656-1.231-0.852c-0.437-0.284-1.176-0.754-1.711-1.208c-0.509-0.431-0.898-0.96-1.408-1.413
			c-0.146,0.439-0.251,1.063-0.138,1.298C23.357,9.006,25.123,9.744,26.725,10.633z"/>
		<path fill="#CC0000" d="M23.24,10.409c0.842,0.714,1.842,1.268,2.87,1.793c1.235,0.63,2.527,1.2,3.882,1.697
			c0.769,0.284,1.561,0.711,2.338,1.009c0.503,0.189,0.964,0.31,1.448,0.522c0.886,0.391,1.734,0.811,2.647,1.21
			c0.254,0.109,0.503,0.372,0.642,0.421c0.25,0.036-0.114-1.229-0.224-1.33c-0.254-0.197-1.88-0.99-2.458-1.185
			c-1.053-0.355-2.513-0.928-3.519-1.359c-0.45-0.193-1.133-0.54-1.62-0.779c-0.896-0.438-2.153-1.006-3.139-1.521
			c-0.681-0.36-1.204-0.729-1.843-1.141c-1.239-0.793-1.77-1.71-1.853-1.654c-0.098,0.261-0.196,1.136-0.037,1.397
			C22.489,9.67,22.968,10.188,23.24,10.409z"/>
		<path fill="#CC0000" d="M30.123,3.018c1.503,0.672-0.076,0.948-1.056,0.964c0.411,0.233,1.013,0.447,1.173,0.889
			c0.119-0.766,1.243-1.134,2.66-0.358c0.385,0.207,1.162,0.884,0.048,1.007c0.194,0.279,0.479,0.258,0.438,0.767
			c-0.093,1.07-2.462,0.446-3.104,0.077c-0.211-0.121-0.365-0.367-0.564-0.521c-0.046,0.197,0.01,0.383-0.042,0.685
			c-0.052,0.361-0.277,0.656-0.36,1.048c-0.219,1.114,1.225,1.38,2.139,1.408c0.098,0.087,0.105,0.253,0.102,0.406
			c-0.004,0.229,0.063,0.354,0.374,0.318c0.216-0.172,0.083-0.775-0.032-1.086c-0.123-0.312-0.543,0.174-0.56-0.34
			c-0.021-0.619,0.474,0.087,0.342-0.903c-0.043-0.239,0.105-0.25,0.315-0.129c0.017,0.167-0.007,0.254-0.099,0.443
			c-0.078,0.157-0.145,0.291-0.123,0.444c1.473,0.722,3.519,1.367,4.489-0.562c0.17-0.349,0.126-0.719-0.056-1.009
			c-0.18-0.288-0.479-0.483-0.882-0.525c-0.409-0.043-0.714-0.09-1.095,0.202c1.13,0.249,0.958,1.201-0.16,1.333
			c-0.285,0.032-0.795,0.099-1.007-0.122c0.01-0.033,0.041-0.162,0.041-0.162c0.837-0.346,0.636-0.561,0.765-1.412
			c0.049-0.333,0.348-0.586,0.241-1.045c-0.119-0.567-1.853-1.247-2.657-1.372c-0.259-0.045-0.326-0.421-0.525-0.563
			c-0.642-0.476-1.901-0.553-2.736-0.566c-0.986-0.018-0.986,0.142-0.809,0.401C27.624,3.098,29.086,2.551,30.123,3.018z
			 M30.427,8.357c-0.187-0.004-0.332-0.05-0.355-0.141c-0.033-0.099-0.107-0.182,0.038-0.232c0.094-0.036,0.343-0.087,0.494-0.048
			C30.879,7.996,30.611,8.36,30.427,8.357z M30.982,8.473c-0.082-0.037-0.131-0.208,0.063-0.336
			C31.141,8.209,31.081,8.512,30.982,8.473z M30.165,7.29c-0.146-0.01-0.058-0.389,0.276-0.359c0.11,0.003,0.519,0.159,0.686,0.197
			C31.611,7.225,30.36,7.18,30.165,7.29z"/>
		<path fill="#CC0000" d="M23.261,14.748c-0.601-0.328-1.587-1.013-1.892-1.251c-0.23-0.177-0.772-0.611-1.095-0.849
			c-0.479-0.378-1.028-1.138-0.943-0.725c0.172,0.579,0.451,1.175,0.843,1.756c0.394,0.565,1.083,1.162,1.693,1.571
			c0.378,0.25,0.952,0.515,1.271,0.827c0.271,0.269,0.565,1.088,0.647,1.491c0.697,3.323-1.005,5.918-2.219,7.818
			c-0.304,0.479-0.743,0.946-0.95,1.529c-0.428,1.235,0.184,2.936,1.714,2.339c1.38-0.843,0.583-2.098,1.292-3.467
			c0.431-0.84,1.124-0.494,1.31-0.925c0.127-0.292,0.312-0.773,0.503-1.174c0.405-0.85,1.073-2.048,1.286-2.64
			c0.139-0.294,0.301-1.847,0.21-2.195c-0.026-0.102-0.562-0.364-0.729-0.484c0.629,1.997-0.179,3.514-1.308,4.94
			c-0.272,0.341-0.537,0.956-0.614,1.238c-0.575,0.036-1.188,0.787-1.316,1.062c-0.396,0.782-0.192,1.951-0.586,2.717
			c-0.167,0.312-0.826,0.558-1.09,0.162c-0.221-0.329-0.206-1.147-0.038-1.533c0.284-0.678,0.891-1.202,1.243-1.811
			c0.763-1.311,1.518-2.847,1.854-4.514c0.233-1.122,0.146-2.355-0.118-3.526c-0.124-0.519-0.384-1.034-0.586-1.496
			C23.535,15.363,23.386,14.956,23.261,14.748z"/>
		<path fill="#CC0000" d="M25.238,5.755c0.404,0.407,0.528,0.369,0.319-0.155C25.486,5.416,25.57,5.177,25.52,5.07
			c-0.066-0.128-0.282-0.192-0.406-0.283c-0.427-0.299-0.723-0.934-0.563-1.648c0.088-0.382,0.118-0.583,0.401-0.483
			c0.197,0.067,0.572,0.511,0.689,0.688c0.424,0.639,0.275,1.05,0.311,1.643c0.02,0.453,0.114,0.95,0.534,1.541
			c0.068,0.099,0.298,0.323,0.282,0.199c-0.012-0.117,0.077-0.815,0.164-0.928c0.104-0.145,0.425-0.748,0.483-1.208
			c0.066-0.631-0.146-1.208-0.445-1.679c-0.441-0.7-0.715-0.823-1.594-0.783c-0.184,0.014-0.566,0.015-0.657,0.099
			c-0.479,0.442-0.79,1.123-0.651,1.919C24.201,4.905,24.781,5.312,25.238,5.755z"/>
		<path fill="#CC0000" d="M24.229,6.944c1.127,1.013,2.46,1.838,3.828,2.663c0.628,0.378,1.818,0.995,1.978,1.028
			c0.102,0.047,0.417,0.162,0.646,0.272c0.239,0.143,3.554,1.407,3.92,1.52c0.46,0.145,1.089,0.556,1.118,0.504
			c-0.211-0.69-0.59-1.064-1.049-1.491c-0.475-0.435-1.198-0.796-1.9-0.991c-0.609-0.162-1.318-0.5-2.012-0.743
			c-1.871-0.657-3.481-1.771-4.954-2.88c-0.276-0.204-0.609-0.565-0.87-0.787c-0.394-0.327-0.826-0.657-1.066-1.128
			c-0.158-0.293-0.154-0.848-0.243-1.21c-0.266,0.324-0.562,0.922-0.648,1.331c-0.05,0.265-0.05,0.413,0.192,0.744
			C23.543,6.294,24.164,6.892,24.229,6.944z"/>
		<path fill="#CC0000" d="M30.418,18.899c0.608,0.015,1.74,0.067,2.878,0.202c0.385-0.024-0.933-0.532-1.509-0.729
			c-0.69-0.229-1.392-0.487-2.075-0.726c-1.203-0.417-2.109-0.762-3.324-1.186c-0.767-0.271-1.185-0.589-1.532-0.809
			c-0.095-0.059-0.769-0.616-0.687-0.32c0.102,0.259,0.203,0.363,0.418,0.785C25.395,17.994,28.248,18.833,30.418,18.899z"/>
		<path fill="#CC0000" d="M22.938,13.982c-0.039-0.299-0.384-0.881-0.484-1.088c-0.184-0.385-0.221-0.551-0.318-0.808
			c-0.234-0.126-0.704-0.546-1.012-0.767c-0.896-0.641-1.532-1.674-2.017-2.213c-0.098,0.022-0.188,0.842-0.122,1.087
			C19.371,11.498,20.513,12.423,22.938,13.982z"/>
		<path fill="#CC0000" d="M84.812,9.809c-0.049,0.432-0.219,1.107-0.237,1.431c0.143,0.201,2.247-2.094,2.412-2.883
			c0.068-0.308-0.303-0.895-0.482-1.146c-0.203,0.361-0.385,0.758-0.644,1.086C84.879,9.521,84.855,9.396,84.812,9.809z"/>
		<path fill="#CC0000" d="M84.894,7.551c0.035,0.285,0.056,0.631,0.083,0.951c0.075,0.145,0.882-1.222,0.948-1.354
			c0.305-0.61-0.098-0.973-0.549-1.229c-0.203,0.228-0.354,0.541-0.413,0.651C84.806,6.806,84.818,6.955,84.894,7.551z"/>
		<path fill="#CC0000" d="M83.926,10.314c-2.009,1.901-6.423,3.665-7.881,4.189c-1.654,0.603-3.275,1.356-4.858,2.06
			c-0.338,0.146-2.146,1.028-2.222,1.245c-0.045,0.146-0.034,1.049-0.034,1.049c1.645-0.852,3.375-1.628,5-2.38
			c1.187-0.542,2.579-0.881,3.862-1.328c1.747-0.604,3.359-1.385,4.797-2.298c0.567-0.361,0.961-0.783,1.152-1.271
			C83.913,11.161,83.949,10.67,83.926,10.314z"/>
		<path fill="#CC0000" d="M81.31,16.902c0.41-0.463,0.714-0.968,0.884-1.67c-2.053,1.445-4.595,2.072-7.057,2.94
			c-0.817,0.289-2.74,1.03-2.176,0.929c1.673-0.28,3.232-0.018,4.576-0.347C79.222,18.351,80.369,17.953,81.31,16.902z"/>
		<path fill="#CC0000" d="M84.812,6.241c0.138-0.292,0.424-0.768-0.407-0.949c-0.25-0.054-0.265,0.11,0.051,0.489
			C84.597,5.944,84.614,6.415,84.812,6.241z"/>
		<path fill="#CC0000" d="M21.669,6.224c0.104,0,0.142-0.251,0.178-0.327c0.094-0.193,0.229-0.41,0.262-0.521
			c0.026-0.074-0.016-0.066-0.055-0.104c-0.013-0.001-0.566,0.084-0.628,0.34C21.389,5.776,21.479,6.231,21.669,6.224z"/>
		<path fill="#CC0000" d="M28.028,14.951c1.655,0.61,3.278,1.045,3.823,1.287c0.494,0.225,1.198,0.529,1.689,0.748
			c1.382,0.618,2.82,1.3,3.851,1.896c0.137,0.042,0.039-1.084-0.323-1.292c-0.54-0.309-1.897-1.024-3.009-1.511
			c-1.094-0.487-2.271-0.958-3.379-1.457c-0.509-0.222-0.946-0.368-1.46-0.561c-0.357-0.138-0.786-0.316-1.228-0.512
			c-2.93-1.048-4.53-2.439-4.964-2.73c-0.097-0.074-0.455-0.423-0.575-0.465c-0.067,0.013-0.013,0.452,0,0.522
			c0.129,0.697,0.313,1.046,0.687,1.449c0.426,0.464,1.211,0.878,1.896,1.25C26.17,14.204,27.015,14.576,28.028,14.951z"/>
		<path fill="#CC0000" d="M21.389,8.438c0.088-0.228,0.094-0.615,0.141-1.112c0.034-0.577-0.099-0.82-0.281-1.078
			c-0.13-0.182-0.158-0.373-0.285-0.328c-0.194,0.14-0.578,0.407-0.605,0.687c-0.028,0.267,0.178,0.672,0.341,0.955
			C20.86,7.839,21.32,8.479,21.389,8.438z"/>
		<path fill="#CC0000" d="M80.903,23.79c0.346,0.728,0.537,1.255,0.566,1.275c0.127,0.089,0.328,0.064,0.483,0.12
			c0.339,0.142,0.695,0.479,0.844,0.803c0.507,1.145,0.036,3.198,1.492,3.432c0.549,0.084,0.956-0.143,1.206-0.364
			c0.296-0.265,0.445-0.887,0.363-1.512c-0.349-1.274-1.021-1.844-1.503-2.664c-1.184-1.669-2.956-5.836-1.233-8.644
			c0.292-0.485,1.09-0.721,1.57-1.046c0.497-0.343,1.019-0.875,1.41-1.332c0.208-0.243,1.146-1.764,0.847-2.017
			c-0.822,0.78-1.729,1.516-2.66,2.176c-0.354,0.249-0.947,0.438-1.21,0.769c-0.289,0.36-0.366,0.874-0.563,1.33
			c-1.487,3.314,0.031,7.419,1.731,9.672c0.299,0.395,1.649,2.231,0.646,2.865c-0.314,0.195-0.807-0.048-0.927-0.287
			c-0.351-0.671-0.19-1.933-0.523-2.7c-0.143-0.305-0.539-0.788-0.854-0.924c-0.122-0.055-0.252-0.033-0.379-0.111
			c-0.136-0.09-0.302-0.548-0.452-0.769c-0.492-0.773-1.254-1.653-1.629-2.793c-0.203-0.627-0.288-1.32-0.118-2.092
			c0.037-0.165,0.139-0.359,0.209-0.521c0.146-0.183-0.857,0.307-0.852,0.585c0.013,0.522,0.088,1.141,0.146,1.671
			C79.583,21.433,80.357,22.661,80.903,23.79z"/>
		<path fill="#CC0000" d="M19.728,9.084c0.523,0.776,1.521,1.772,2.044,2.113c0,0.013-0.091-0.482-0.177-1.024
			c-0.034-0.219-0.02-0.455-0.186-0.784c-0.287-0.426-1.195-1.232-1.453-2.14c-0.227-0.179-0.6,0.834-0.585,1.129
			C19.411,8.55,19.575,8.858,19.728,9.084z"/>
		<path fill="#CC0000" d="M79.092,5.032c0.13,0.37,0.529,0.814,0.479,1.253c-0.057,0.474,0.069,0.646,0.406,0.157
			c0.858-1.282,0.062-1.981,0.78-3.041c0.245-0.363,0.688-0.979,0.942-0.625c0.251,0.834,0.136,1.385-0.099,1.685
			c-0.294,0.384-0.767,0.456-0.784,1.153c-0.01,0.322-0.059,0.501,0.119,0.426c0.334-0.335,0.925-0.844,1.211-1.351
			c0.354-0.625,0.071-2.092-0.381-2.376c-0.235-0.148-0.837-0.246-1.309-0.186c-0.448,0.064-0.661,0.337-0.931,0.686
			C79.134,3.331,78.752,4.129,79.092,5.032z"/>
		<path fill="#CC0000" d="M80.441,6.944c-1.697,1.278-3.357,2.168-4.896,2.803c-1.293,0.532-2.582,0.735-3.627,1.492
			c-0.547,0.396-1.521,1.766-1.295,1.733c1.88-0.886,4.021-1.584,5.928-2.437c2.233-1.002,4.093-2.337,5.844-3.812
			c0.321-0.274,0.955-0.944,1.008-1.287C83.49,4.853,83.04,4.042,82.798,3.7c-0.198,0.084-0.042,0.979-0.364,1.369
			C82.125,5.447,80.82,6.656,80.441,6.944z"/>
		<polygon fill="#CC0000" points="46.194,8.234 48.184,7.435 46.194,6.637 44.203,7.435 		"/>
		<path fill="#CC0000" d="M83.967,12.648c-0.208,0.464-0.357,0.883-0.566,1.334c-0.009,0.244,3.449-2.059,3.868-3.445
			c0.112-0.364,0.066-1.079-0.038-1.43c-0.358,0.469-0.776,1.051-1.168,1.489C85.144,11.601,84.36,11.766,83.967,12.648z"/>
		<path fill="#CC0000" d="M82.112,9.748c-3.05,1.913-6.524,3.487-10.157,4.8c-0.477,0.172-2.413,1.092-2.479,1.231
			c-0.161,0.363-0.297,0.873-0.285,1.283c0.757-0.44,2.182-1.142,3.286-1.588c3.426-1.384,7.071-2.483,9.873-4.474
			c0.569-0.403,1.223-0.768,1.619-1.33c0.27-0.397,0.146-1.195,0-1.61C83.375,8.613,82.806,9.309,82.112,9.748z"/>
		<path fill="#CC0000" d="M81.503,8.033c-0.513,0.366-2.912,1.944-4.115,2.552c-1.529,0.772-3.233,1.375-4.729,1.884
			c-0.809,0.274-2.477,1.122-2.532,1.37c-0.104,0.354-0.306,0.813-0.354,1.153c1.922-0.897,2.405-1.033,4.457-1.757
			c0.754-0.271,2.276-0.949,2.539-1.07c1.364-0.617,2.651-1.392,3.689-1.933c1.605-0.788,3.031-2.133,3.36-2.901
			c0.199-0.471,0.041-0.952-0.101-1.366C83.674,6.047,82.632,7.245,81.503,8.033z"/>
		<path fill="#CC0000" d="M53.01,6.442c-0.792,0.056-1.585,0.192-2.099,0.521c-0.32,0.202-0.32,0.583-0.32,0.565
			c0.047,0.233,0.483,0.454,0.685,0.529c1.154,0.408,2.992,0.333,3.99-0.163c0.271-0.141,0.693-0.381,0.402-0.807
			C55.368,6.642,53.86,6.379,53.01,6.442z M55.062,7.544c-0.241,0.235-0.975,0.395-1.812,0.354c-1.021-0.038-1.909-0.12-1.935-0.445
			c-0.01-0.104,0.133-0.208,0.358-0.293c0.387-0.144,1.028-0.249,1.614-0.228c0.821,0.021,1.821,0.099,1.854,0.437
			C55.145,7.429,55.118,7.49,55.062,7.544z"/>
		<path fill="#CC0000" d="M74.732,8.135c0.021-0.152-0.043-0.286-0.119-0.443c-0.094-0.189-0.116-0.276-0.096-0.443
			c0.206-0.121,0.354-0.11,0.317,0.129c-0.135,0.99,0.362,0.284,0.331,0.903c-0.005,0.514-0.435,0.028-0.554,0.34
			c-0.116,0.311-0.244,0.914-0.036,1.086c0.316,0.036,0.385-0.089,0.38-0.318c-0.009-0.153,0.005-0.319,0.099-0.406
			c0.913-0.028,2.357-0.294,2.136-1.408c-0.077-0.392-0.306-0.687-0.359-1.048c-0.046-0.302,0.005-0.487-0.038-0.685
			c-0.201,0.153-0.353,0.399-0.568,0.521c-0.641,0.37-3.006,0.993-3.102-0.077c-0.046-0.509,0.24-0.487,0.438-0.767
			c-1.116-0.123-0.335-0.8,0.047-1.008c1.415-0.773,2.535-0.406,2.656,0.359c0.166-0.442,0.764-0.655,1.17-0.889
			c-0.973-0.016-2.551-0.292-1.049-0.964c1.035-0.467,2.497,0.08,2.746-0.286c0.169-0.26,0.169-0.419-0.811-0.4
			c-0.844,0.014-2.098,0.092-2.737,0.566c-0.202,0.144-0.271,0.52-0.528,0.563c-0.804,0.125-2.536,0.805-2.657,1.372
			c-0.106,0.458,0.194,0.712,0.242,1.045c0.124,0.852-0.076,1.066,0.764,1.412c0,0,0.03,0.129,0.043,0.162
			c-0.214,0.221-0.725,0.154-1.008,0.122c-1.12-0.132-1.296-1.084-0.169-1.333c-0.374-0.292-0.683-0.269-1.082-0.202
			c-0.399,0.063-0.707,0.238-0.887,0.525c-0.181,0.29-0.229,0.684-0.061,1.029C71.225,9.444,73.267,8.858,74.732,8.135z
			 M75.525,8.473c-0.098,0.039-0.159-0.265-0.061-0.336C75.656,8.265,75.61,8.436,75.525,8.473z M76.436,8.217
			c-0.024,0.091-0.172,0.137-0.351,0.141C75.9,8.36,75.629,7.996,75.903,7.935c0.151-0.039,0.399,0.012,0.492,0.048
			C76.544,8.035,76.475,8.118,76.436,8.217z M75.38,7.128c0.169-0.038,0.577-0.194,0.684-0.197c0.336-0.029,0.42,0.35,0.28,0.359
			C76.143,7.18,74.899,7.225,75.38,7.128z"/>
		<polygon fill="#CC0000" points="60.092,8.234 62.081,7.435 60.092,6.637 58.099,7.435 		"/>
		<path fill="#CC0000" d="M35.793,8.782c-0.242,0.422-0.08,0.882-0.036,1.412c-0.369,0.247-0.659,0.539-0.924,0.888
			c0.061,0.061,0.196,0.261,0.277,0.275c0.18,0.037,0.259-0.094,0.324-0.161c0.216-0.171,0.766-0.71,0.906-0.862
			c0.133-0.148,0.016-0.395-0.034-0.57c-0.195-0.755,0.278-0.908,0.497-0.948c0.359-0.058,0.565,0.05,0.807-0.235
			c0.109-0.135,0.023-0.348,0.039-0.487c0.07-0.674,0.839-0.715,1.29-0.4c0.269,0.188,0.632,0.227,0.923-0.053
			c0.336-0.325,0.908-0.232,1.179,0.295C40.51,8.059,40.224,8.336,40.227,8.7c-0.381-0.151-0.599-0.09-0.844,0
			c-0.426,0.155-0.605,0.457-0.841,0.804c-0.144-0.014-0.307-0.066-0.484-0.032c-0.428,0.057-0.841,0.5-0.809,0.883
			c0.038,0.434,0.391,0.695,0.643,0.926c0.52,0.467-0.298,0.282-0.441,0.683c-0.13,0.376,0.199,0.842-0.261,0.808
			c-0.379-0.033-0.574-0.646-0.827-0.48c-0.049,0.128-0.146,0.82,0.04,0.746c0.263-0.129,0.477,0.151,0.724,0.18
			c0.376,0.032,0.582-0.104,0.766-0.104c0.175-0.004,0.446,0.171,0.661,0.232c0.211,0.061,0.644-0.018,0.729-0.027H39.28
			c1.345-0.617,0.316-1.323,0.316-1.323s-0.176-0.176-0.418-0.338c0,0,1.059,0.213,0.512-0.677l0.126,0.046l0.333,0.126
			c0.002,0,0.105,0.04,0.119,0.046c0.058,0.034,0.129,0.075,0.203,0.124l0.169,0.104c0.004,0.002,0.006,0.004,0.006,0.007
			c0.072,0.043,0.132,0.07,0.179,0.088c0.012,0.002,0.022,0.008,0.036,0.012c0.015,0.005,0.032,0.01,0.043,0.014
			c0.005,0.001,0.013,0.001,0.022,0.003c0.004,0,0.006,0,0.006,0c0.008,0,0.017,0.002,0.026,0.002c0,0,0,0,0.004,0
			c0.002,0.001,0.006,0.001,0.008,0.001c0.01,0,0.021,0,0.024,0c0.003,0,0.006,0,0.006,0c0.01-0.001,0.018-0.001,0.028-0.003l0,0
			c0.049-0.007,0.082-0.027,0.112-0.05l0.002-0.003c0.003-0.002,0.007-0.006,0.01-0.008c0.016-0.017,0.032-0.04,0.051-0.066
			c0-0.002,0-0.005,0-0.005c0.028-0.056,0.049-0.121,0.062-0.166c0.006-0.02,0.007-0.038,0.01-0.058
			c0.002-0.002,0.002-0.007,0.002-0.018c0.002-0.007,0.002-0.01,0.002-0.01l0.003-0.091l0.001-0.271l-0.049-0.369v-0.004
			l-0.003-0.013c0-0.002,0-0.004,0-0.006c-0.001-0.014-0.001-0.025-0.001-0.035c-0.009-0.167-0.029-0.302-0.073-0.464
			c0.601,0.004,0.632,0.586,0.887,0.483c0.146-0.131,0.238-0.465,0.327-0.808h0.002c0-0.275-0.091-0.545-0.186-0.751h-0.002
			c0,0-0.386-0.562-0.443-0.748c-0.071-0.197-0.071-0.406-0.21-0.584C41.42,7.377,41.054,7.107,41.04,6.93
			C41.006,6.576,41,5.83,41.22,5.814c4.262-0.041,19.497-0.11,23.198-0.103c0.523,0.003,0.854,0.2,0.843,0.246
			c0.012,0.218,0.13,0.737,0.045,1.006c-0.057,0.164-0.391,0.332-0.485,0.487c-0.13,0.2-0.194,0.74-0.319,0.967
			c-0.001,0.001-0.003,0.006-0.006,0.01c-0.103,0.187-0.289,0.406-0.289,0.406h-1.27c-0.051,0-0.104,0.004-0.158,0.004
			c0.041,0,0.084,0,0.122,0h1.306c-0.237,0.389-0.253,0.637-0.243,0.753h0.004c0,0,0.041,0.271,0.129,0.561V10.15
			c0.039,0.105,0.099,0.188,0.193,0.219c0.239,0.036,0.605-0.502,1.22-0.456c-0.028,0.39-0.117,1.593,0.24,1.527
			c0.263-0.051,0.559-0.469,0.815-0.358c-0.169,0.225-0.097,0.388,0,0.486c0,0.238,0,0.55,0,0.912c0-0.337,0-0.697,0-0.91
			c0.01,0,0.146,0.245,0.813,0.213c0,0-1.602,1.097-0.06,1.624c0.39-0.06,0.75-0.229,1.046-0.271
			c0.411-0.062,0.577,0.112,0.93,0.035c0.281-0.06,0.755-0.06,0.808-0.357c0.035-0.239-0.155-0.472-0.204-0.604
			c-0.396,0.233-0.642,0.736-0.966,0.521c0.164-0.425-0.027-1.07-0.482-1.129c-0.499-0.061,0.661-0.591,0.643-1.368
			c-0.007-0.411-0.455-0.879-1.248-0.729c-0.185-0.263-0.435-0.655-0.729-0.804c-0.257-0.13-0.667-0.055-0.925,0
			c-0.228-0.389-0.402-0.545-0.85-0.728c-0.058,0.134,0.161-0.838,1.011-0.443c0.168,0.081,0.273,0.285,0.481,0.326
			c0.623,0.116,0.937-0.616,1.574-0.242l0.041,0.038c0.074,0.062,0.37,0.519,0.24,0.929c0.276,0.463,0.654,0.078,1.049,0.278
			l0.037,0.044c0.67,0.524,0,0.827,0.156,1.412c0.088,0.287,0.736,0.61,0.933,0.847c0.327,0.385,0.76,0.077,0.525-0.244
			c-0.166-0.237-0.745-0.521-0.804-0.806c-0.056-0.229,0.141-0.413,0.162-0.563c0.093-0.935-0.62-1.267-1.454-1.333
			c-0.198-0.641-0.328-1.02-0.931-1.25c-0.816-0.309-0.895,0.173-1.325,0.202c0,0-0.951-0.333-1.011-0.359
			c-0.122-0.066-0.16-1.507-0.24-1.692c0.808-0.354,1.888-1.162,2.056-2.096c0.095-0.515,0.038-1.368,0-1.853
			c-0.608,0.08-1.521-0.099-2.137,0.08c-1.23,0.347-0.114,2.988-1.81,3.184c-0.734,0.083-1.104-0.365-1.337-0.805
			c-0.6-1.154,0.282-2.101,0.367-2.5C62.436,1.081,59.01,1,57.685,1c-0.016,0.078,0.656,1.271,0.176,2.425
			c-0.248,0.59-1.265,1.61-2.322,0.318c-0.356-0.446-0.438-1.184-0.315-1.86C55.291,1.546,55.471,1.444,55.547,1
			c-1.148,0.018-3.625-0.007-4.796,0.042c0.094,0.362,0.286,0.58,0.362,0.93c0.235,1.127-0.312,2.326-1.251,2.417
			c-1.025,0.096-1.695-1.081-1.566-2.137c0.044-0.437,0.217-0.765,0.275-1.209c-1.68,0.059-3.469,0.039-5.077,0.082
			c0.132,0.834,0.896,1.669,0.142,2.782c-0.541,0.795-2.075,0.886-2.216-0.73c-0.053-0.658-0.104-1.431-0.689-1.949
			c-0.716-0.021-1.467,0.037-2.156,0.037c-0.442,2.432,0.52,2.771,1.854,3.851c0,0.303,0,1.187,0,1.652
			c-0.289,0.095-0.886,0.444-1.166,0.399c-0.113-0.014-0.506-0.572-1.35-0.148c-0.494,0.247-0.765,0.797-0.867,1.239
			C36.555,8.265,36.021,8.395,35.793,8.782z M37.809,10.271c0.055-0.045,0.09-0.141,0.167-0.16c0.479-0.142,1.031,0.438,1.088,0.723
			c0.008,0.048,0,0.248,0,0.248C38.605,11.204,37.742,10.832,37.809,10.271z M38.819,12.85c-0.257,0.004-0.687-0.097-0.812-0.218
			c-0.223-0.215-0.229-0.571,0.248-0.627c0.318-0.042,0.742,0.26,0.88,0.504C39.243,12.699,39.169,12.846,38.819,12.85z
			 M40.393,10.633c-0.356-0.142-0.977-0.308-1.128-0.642c-0.106-0.232,0.062-0.47,0.118-0.487
			C39.956,9.326,40.652,10.422,40.393,10.633z M41.078,8.661c0.464-0.199,0.74,0.401,0.648,0.686
			C41.418,9.346,40.781,9.037,41.078,8.661z M67.439,12.85c-0.747-0.033,0.183-0.833,0.563-0.845
			C68.915,11.977,68.364,12.897,67.439,12.85z M68.083,10.111c0.946-0.126,0.18,0.911-0.441,0.971
			C66.851,11.15,67.763,10.158,68.083,10.111z M66.633,9.504c0.151-0.029,0.238,0.024,0.36,0.043c0.23,0.581-0.354,0.85-0.845,1.05
			l-0.162-0.04C66.034,10.128,66.276,9.58,66.633,9.504z M65.219,9.144c-0.104,0.075-0.376,0.165-0.48,0.202l-0.162-0.08
			c0.067-0.261,0.156-0.559,0.406-0.605C65.375,8.589,65.439,8.977,65.219,9.144z M65.795,2.48c0.147-0.213,0.374-0.357,0.75-0.354
			c0.784,0.015,0.408,0.978,0.438,0.883c-0.046,0.129-0.125,0.255-0.197,0.376c-0.333,0.426-0.808,0.802-1.238,1
			C65.656,3.826,65.576,3.01,65.795,2.48z M58.809,3.018c0.035-0.571-0.149-0.792,0.083-1.211c0.951,0,2.903-0.115,2.819,0.205
			c-0.438,1.65,0.164,2.478,0.891,3.021c-1.648,0.039-1.808-0.563-1.892-1.493c-0.306-0.167-0.601-0.131-1.05-0.078
			c-0.41,1.027-0.188,1.589-1.974,1.515C57.098,5.062,58.73,4.497,58.809,3.018z M51.96,3.175c0.058-0.432-0.031-0.901-0.086-1.244
			c0.012-0.196,2.564-0.264,2.545-0.125c-0.286,2.333,0.884,2.848,1.293,3.187c-1.3,0.124-1.888-0.139-2.101-1.413
			c-0.445,0-0.603-0.017-0.926,0.044c-0.122,1.301-0.674,1.472-1.976,1.369C51.287,4.555,51.835,4.063,51.96,3.175z M44.564,1.867
			c0.191,0,2.451-0.061,2.986-0.061c-0.085,0.686-0.085,2.504,1.223,3.148c-1.696,0.142-1.62-0.255-2.093-1.494
			c-0.222,0.007-0.57,0-0.946,0.039c-0.296,1.188-0.141,1.6-2.035,1.532C44.446,4.233,45.138,3.866,44.564,1.867z M39.346,1.971
			c0.248,0,0.648-0.04,0.88,0c0.658,0.462,0.189,1.75,0.672,2.52C39.842,3.912,38.83,2.701,39.346,1.971z"/>
		<path fill="#CC0000" d="M90.977,39.935c-0.428,0.537-1.481,0.927-2.295,0.927c0.054-1.047-0.796-1.447-1.049-2.255
			c-0.191-0.623,0.171-1.165,0.24-1.572c0.128-0.721-0.492-0.714-0.644-1.124c-0.095-0.258,0.044-0.696,0-0.93
			c-0.037-0.181-0.405-0.361-0.89-0.564c-0.847,0.726-1.573,0.755-2.214,0.444c-0.152-0.079-0.376-0.256-0.411-0.444
			c-0.09-0.723,0.553-1.607,0.771-2.136c0.158-0.382,0.166-0.911,0.281-1.29c1.597-0.306,2.54-1.416,2.302-3.292
			c-0.063-0.528-0.317-1.021-0.532-1.399c-0.257-0.447-0.537-0.883-0.814-1.312c-0.616-0.848-1.196-1.676-1.637-2.661
			c-0.818-1.852-0.724-4.705,0.318-6.207c0.019-0.028,0.514-0.557,0.288-0.522c-0.163,0.016-0.538,0.262-0.688,0.363
			c-0.5,0.333-0.797,1.199-0.927,1.892c-0.065,0.356-0.103,0.715-0.144,1.042c-0.04,0.348,0.019,0.84,0.06,1.136
			c0.229,1.623,0.693,2.517,1.283,3.689c0.692,1.362,2.554,2.947,2.33,5.108c-0.229,1.415-1.647,1.648-2.893,1.562
			c0.102,0.603,0.201,1.364,0.094,2.054c-0.127,0.673-0.672,1.283-0.529,2.218c0,0,0.163,1.733,3.264,0.646
			c0.12,0.522,0.204,0.874,0.442,1.165c0.396,0.492,0.34-0.148,0.083,0.932c-0.116,0.479,0,1.106,0.12,1.448
			c0.209,0.598,0.596,1.009,0.756,1.623c-0.021-0.006-0.023,0.479-0.271,1.078c-0.736-0.059-1.89-0.062-2.379,0.242
			c-0.639,0.394-0.196,0.885-0.891,0.928c-0.157,0-0.115-0.305-0.195-0.442c-0.272-0.479-0.809-0.568-1.412-0.728
			c0.116-1.078,0.055-1.229-0.486-1.893c0.428-0.271,0.845-0.171,1.286,0.079c0.321,0.177,0.489,0.335,0.854,0.48
			c0.158-0.399-0.009-1.1,0.202-1.567c0.347-0.798,0.447-1.083,0.04-1.13c-0.846-0.105-1.352-0.232-1.738-0.93
			c-0.732-1.332-0.181-0.946-1.086-0.564c-2.032,0.85-2.775-0.075-3.387-0.564c-0.277-0.295-0.487-0.714-0.649-1.221
			c-0.319-0.997-0.397-2.316-0.278-3.533c0.106-1.047,0.48-2.434,0.24-3.79c-0.103-0.594-0.556-1.371-1.043-1.608
			c-0.461-0.229-1.062-0.21-1.572-0.365c-1.328-0.394-2.415-1.977-1.732-3.466c0.515-1.127,1.771-1.655,1.771-2.098
			c-0.199-0.003-0.488,0-0.887,0.044c-0.559,0.924-3.367,2.942-4.193,3.466c0.496,0.787,0.029,1.454,0.083,1.292
			c-0.846-0.949-1.371,0.528-1.732,0.396c-0.203-1.058-0.342-1.115-1.17-1.612c0.143-0.681,0.462-1.239-0.027-1.757l0,0l0.008-0.235
			c0.075-0.28,0.102-0.594,0.102-0.987c0.376-0.14,1.244,0.905,1.374,0.785c0.855-0.337,1.828-1.185,3.746-1.957
			c1.233-0.5,2.499-0.997,3.746-1.449c2.021-0.732,5.392-1.682,6.448-3.185c0.226-0.316,0.282-0.688,0.409-1.086
			c-0.074-0.103-1.491,0.948-2.94,1.609c-1.203,0.544-3.322,1.149-4.479,1.592c-1.611,0.609-3.263,1.222-4.754,1.954
			c-1.144,0.558-1.619,0.965-1.939,1.146c-0.377,0.222,0.075,0.447-0.235,0.589c-0.358-0.401-0.998-0.653-1.453-0.766v0.006h-0.048
			c-0.45,0.023-0.707,0.1-0.707,0.1c0-0.045,0-0.075,0-0.097c0,0.004,0,0.006-0.005,0.008v0.089c0,0-0.07,0.047-0.177,0.115
			c-0.243,0.18-0.676,0.387-0.836,0.623c-0.17,0.311-0.192,0.811-0.089,0.959c0.098,0.142,0.428,0.161,0.53,0.169
			c-0.377,0.298-0.777,0.787-0.849,1.374c-0.161,1.396,1.192,0.542,1.29,0.921c0.166,0.639-0.291,1.06-0.2,1.776
			c0.018,0.143,0.131,0.279,0.218,0.4c0.035,0.042,0.116,0.065,0.116,0.065c0.591,0.054,0.753-0.097,0.753-0.097l0,0
			c0.806-0.5,0.551-0.323,0.728-0.447c0.688,0.045,0.288,0.592,0.12,0.727c-0.104,0.081-0.642,0.3-0.199,0.405
			c0.666,0.077,0.96,0.279,1.811-0.288c0.602-0.396,1.136-1.357,1.173-2.294c0.025-0.003-0.059-0.643-0.037-0.68
			c0.015-0.062,1.777-1.408,1.812-1.374c0.199,0.198-0.452,2.255,0.925,3.541c0.871,0.826-1.069-0.33-3.384,0.728
			c-1.058,0.486-1.722,1.184-2.26,2.179c-1.094,2.041,0.298,3.648,1.818,4.354c-0.032,0.783,0.068,0.752-0.124,0.888
			c-0.179,0.104-0.41,0.041-0.606,0.121c-1.108,0.424-0.858,1.336-1.494,1.169c-0.845-0.226-1.274-1.422-2.423-1.256
			c-0.493,0.079-0.637,0.455-1.019,0.653c-0.267,0.14-0.349,0.11-0.259-0.011c-0.389,0.271-1.492,0.988-3.315,1.678
			c0.324-0.086,0.654-0.153,0.971-0.177c0.232-0.023,0.855-0.055,1.051,0.118c0.136,0.12,0.197,0.638,0.366,0.647
			c0,0,1.191-0.811,0.883,0c-0.205,0.186-1.27,0.494-0.649,1.852c0.877,0.525,1.745,1.099,2.385,2.018
			c0.943,1.354,0.537,2.982-0.688,3.743c0.61-1.768-0.072-3.52-1.895-3.827c-0.901-0.152-1.731-0.141-2.456-0.439
			c-0.969-0.416-1.66-1.146-2.543-1.614c-0.699-0.371-1.568-0.54-2.291-0.887c0,0-2.979,0.431-5.46-0.035
			c0.1,0.026,0.243,0.036,0.342,0.062c-0.977,0.354-2.037,0.669-2.87,1.181c-0.679,0.424-1.285,1.015-2.086,1.331
			c-0.731,0.285-1.536,0.202-2.386,0.401c-1.731,0.412-2.549,1.924-1.896,3.827c-1.099-0.667-1.551-2.245-0.805-3.582
			c0.562-1.003,1.67-1.64,2.661-2.212c0.035-0.114,0.046-0.229,0.039-0.255c0.062-0.663-0.03-0.736-0.077-0.918
			c-0.113-0.195-0.346-0.545-0.771-0.646c-0.006-0.146-0.099-0.247,0.047-0.322c0.198-0.126,0.443,0.168,0.639,0.238
			c0.592,0.192,0.413-0.663,0.971-0.683c0.676-0.021,1.273,0.099,1.832,0.271c-0.979-0.408-2.083-0.962-3.194-1.688
			c-0.193-0.027-0.461-0.056-0.691-0.072c-0.044-0.286-0.502-0.729-1.252-0.653c-0.836,0.09-1.166,1.166-2.418,1.256
			c-0.451-0.764-0.779-1.193-1.733-1.256c-0.101-0.139-0.24-0.705-0.122-0.922c-0.067,0.127,1.069-0.583,1.532-1.088
			c1.908-2.072-0.375-4.925-2.136-5.565c-0.99-0.354-2.195-0.236-3.347-0.32c0.746-1.187,1.258-1.952,0.971-3.866
			c0.327,0.149,1.78,1.1,1.896,1.372c0.111,0.276-0.037,0.738,0,1.005c0.101,0.771,0.66,1.742,1.289,2.135
			c0.539,0.341,1.438,0.411,1.891,0c-0.532-0.173-0.873-0.729-0.357-1.006c0.137,0.097,0.248,0.191,0.4,0.282
			c0.107,0.064,0.392,0.196,0.662,0.263l0,0c0.042,0,0.648-0.008,0.845-0.236v0.002l0,0c0.105-0.178,0.112-0.457,0.112-0.502
			c0,0,0-0.008,0-0.011c-0.002-0.026-0.003-0.051-0.007-0.076c-0.005-0.037-0.01-0.073-0.015-0.11
			c-0.003-0.021-0.008-0.044-0.01-0.067c-0.008-0.04-0.014-0.072-0.021-0.111c0-0.006-0.001-0.014-0.003-0.02
			c-0.006-0.032-0.01-0.062-0.018-0.092c-0.034-0.182-0.074-0.375-0.102-0.571c0-0.004,0-0.006,0-0.007c0-0.002,0-0.009-0.001-0.016
			c-0.006-0.059-0.014-0.123-0.019-0.182c-0.001-0.029-0.003-0.058-0.003-0.086c-0.002-0.044-0.002-0.083-0.002-0.118
			c0-0.032,0-0.059,0.002-0.083c0-0.026,0-0.042,0-0.042c0.021,0.013,0.042,0.022,0.06,0.035c0.264,0.13,0.451,0.142,0.451,0.142
			c0.159,0.016,0.273-0.018,0.349-0.056c0.056-0.027,0.107-0.067,0.148-0.121c0.008-0.008,0.019-0.019,0.021-0.029
			c0.005-0.001,0.005-0.006,0.008-0.007c0.042-0.06,0.073-0.128,0.088-0.196c0.006-0.02,0.011-0.041,0.017-0.063
			c0-0.001,0-0.001,0-0.002c0.003-0.018,0.004-0.033,0.01-0.052c0.007-0.036,0.009-0.079,0.012-0.123c0-0.008,0-0.012,0-0.021
			c0.002-0.119-0.007-0.232-0.021-0.325c-0.004-0.03-0.008-0.063-0.015-0.092c-0.002-0.01-0.002-0.027-0.003-0.04
			c-0.005-0.013-0.005-0.021-0.007-0.027c-0.003-0.008-0.005-0.013-0.005-0.018c-0.001-0.013-0.002-0.02-0.002-0.02
			c0-0.011-0.006-0.019-0.011-0.028c0-0.004,0-0.006,0-0.017c0-0.002,0-0.004-0.002-0.005c-0.012-0.045-0.023-0.087-0.036-0.124
			c-0.035-0.104-0.079-0.182-0.079-0.182c0-0.004-0.002-0.007-0.005-0.013c-0.034-0.062-0.07-0.116-0.108-0.176
			c-0.008-0.011-0.013-0.021-0.013-0.021c-0.049-0.097-0.26-0.301-0.32-0.356c-0.021-0.019-0.039-0.034-0.058-0.054
			c-0.002-0.002-0.004-0.008-0.008-0.009c-0.01-0.009-0.016-0.021-0.027-0.029c-0.003-0.006-0.008-0.011-0.016-0.018
			c-0.002-0.006-0.01-0.012-0.014-0.021c-0.007-0.013-0.021-0.025-0.025-0.035l0,0c-0.005-0.011-0.005-0.018-0.01-0.025
			c-0.004-0.003-0.006-0.011-0.011-0.02c-0.002-0.007-0.007-0.014-0.011-0.02c-0.017-0.052-0.006-0.085-0.006-0.085
			c0.169,0.025,0.303,0.025,0.396-0.012l0,0c0.015-0.003,0.021-0.01,0.035-0.014c0.009-0.002,0.014-0.003,0.016-0.009
			c0.006-0.001,0.012-0.003,0.019-0.006c0.002-0.006,0.008-0.008,0.011-0.012c0.012-0.004,0.022-0.019,0.029-0.026
			c0.036-0.034,0.059-0.079,0.07-0.122c0.006-0.016,0.012-0.03,0.017-0.048C40.996,20.835,41,20.8,41,20.765
			c0-0.006,0-0.013,0-0.016c0-0.007,0-0.014,0-0.014c-0.002-0.106-0.01-0.189-0.022-0.257c-0.002-0.02-0.006-0.035-0.008-0.058
			c-0.014-0.063-0.024-0.104-0.034-0.136c-0.004-0.01-0.006-0.021-0.012-0.033l-0.002-0.004c-0.006-0.01-0.008-0.021-0.014-0.034
			c-0.003-0.006-0.007-0.014-0.009-0.021c-0.008-0.011-0.017-0.027-0.021-0.038c-0.012-0.022-0.026-0.045-0.039-0.065
			c-0.086-0.132-0.188-0.224-0.188-0.224c-0.002-0.008-0.008-0.01-0.016-0.015c-0.043-0.044-0.099-0.088-0.146-0.125
			c-0.179-0.135-0.422-0.279-0.454-0.293c-0.006-0.002-0.009-0.002-0.009-0.007c-0.091-0.031-0.378-0.101-0.739-0.11l0,0
			c-0.25-0.006-0.589,0.031-0.823,0.113c-0.378,0.139-0.641,0.383-0.846,0.56c-0.111,0.079-0.21,0-0.143-0.423
			c0.031-0.209-1.17-0.793-1.473-0.95c-1.056-0.559-1.91-0.993-2.953-1.431c-0.672-0.285-1.876-0.735-2.646-1.008
			c-1.237-0.439-2.535-0.738-3.706-1.271c-0.537-0.243-1.415-0.662-2.127-1.084c-0.828-0.488-1.397-0.907-1.303-0.727
			c0.097,0.273,0.191,0.741,0.468,1.129c0.301,0.422,1.184,1.042,1.648,1.309c1.078,0.596,2.697,1.14,4.335,1.672
			c1.504,0.492,3.045,1.13,4.472,1.775c0.786,0.352,1.567,0.818,2.338,1.249c0.263,0.143,0.843,0.559,1.17,0.543
			c0.116-0.007,0.411-0.388,0.571-0.499c0.161-0.104,0.416-0.271,0.535-0.326c0.37-0.172-0.084,0.315,0.264,1.164
			c-0.076,0.076-0.146,0.195-0.202,0.284c-0.311,0.447-0.008,1.122,0.158,1.57c-0.514,0.224-0.796,0.432-0.974,0.813
			c-0.308,0.67,0.011,0.992-0.581,0.6c-0.341-0.229-0.313-0.618-0.965-0.424c-0.312,0.085-0.409,0.375-0.523-0.322
			c-0.033-0.21,0.129-0.557,0.186-0.78c-1.227-0.872-2.569-1.743-3.591-2.826c-0.433-0.461-0.354-0.761-1.531-0.646
			c1.812,1.448,2.214,2.231,2.055,3.427c-0.064,0.52-0.441,1.033-0.764,1.331c-0.203,0.184-0.521,0.578-0.766,0.688
			c-0.911,0.396-2.012,0.197-2.537,0.965c-0.936,1.37-0.327,3.721-0.2,5.359c0.073,1.022-0.021,2.023-0.258,2.855
			c-0.115,0.378-0.251,0.729-0.427,1.021c-0.634,1.023-1.924,1.739-3.508,1.086c-0.29-0.12-0.438-0.307-0.808-0.445
			c-0.358,0.864-0.634,1.21-1.166,1.572c-0.434,0.282-1.214,0.181-1.25,0.362c-0.09,0.372,0.172,0.685,0.24,0.927
			c0.122,0.439,0.236,1.33,0.08,1.552c0.109,0.104,0.198,0.166,0.324,0.079c0.393-0.273,0.976-0.921,1.733-0.702
			c0.139,0.038,0.302,0.079,0.242,0.202c-0.671,0.712-0.671,0.865-0.486,1.81c-0.255,0.278-0.513,0.047-0.945,0.325
			c-0.388,0.238-0.522,0.524-0.589,0.841c-0.032,0.167-0.322,0.125-0.322,0.125c-0.146-0.179-0.169-0.356-0.276-0.604
			c-0.094-0.206-0.249-0.363-0.508-0.433c-0.631-0.183-1.662-0.338-2.236-0.132c-0.146,0.035-0.347-0.729-0.281-1.172
			c0.036-0.294,0.195-0.546,0.281-0.683c0.065-0.089,0.535-0.783,0.603-1.47c0.032-0.288,0.021-0.738-0.036-0.89
			c-0.049-0.117-0.34-0.604-0.205-0.682c0.507-0.356,0.638-0.758,0.768-1.438c0.332,0.069,0.555,0.175,0.804,0.245
			c0.962,0.281,2.286,0.176,2.42-0.809c0.096-0.652-0.141-1.191-0.28-1.611c-0.265-0.798-0.359-1.898-0.077-2.78
			c-1.443,0.32-2.899-0.277-2.905-2.139c-0.009-1.434,1.052-2.376,1.614-3.301c0.571-0.956,1.393-2.35,1.792-3.663
			c0.349-1.156,0.394-3.448-0.425-4.849c-0.223-0.372-0.643-0.528-1.051-0.716c0.241,0.472,0.591,0.86,0.767,1.367
			c0.562,1.64,0.457,3.205,0.09,4.404c-0.499,1.639-1.519,2.779-2.305,4.142c-0.435,0.743-1.141,1.602-1.009,2.864
			c0.159,1.557,1.038,2.229,2.419,2.576c0,0.548,0.18,0.943,0.321,1.327c0.169,0.451,0.736,1.596,0.604,2.18
			c0,0-0.162,0.542-1.089,0.503c-0.957-0.039-1.362-0.614-1.489-0.623c-0.143-0.015-0.514,0.282-0.626,0.343
			c-0.37,0.188-0.145,0.387-0.157,0.828c-0.014,0.143-0.147,0.485-0.305,0.579c-0.313,0.193-0.605,0.505-0.404,0.907
			c0.167,0.338,0.318,0.766,0.244,1.331c-0.096,0.648-0.562,0.96-0.848,1.437c-0.455,0.735-0.055,1.016-0.327,1.061
			c-0.542,0.029-1.308-0.274-1.771-0.602c-0.223-0.162-0.631-0.512-0.483,0c0.182,0.631,0.432,1.203,0.644,1.65
			c0.747,1.381,2.8,3.571,6.97,3.358c0.912-0.011,2.453-0.358,3.349-0.758c0.225-0.141,0.503,1.145,0.809,0.953
			c0.425-1.953,2.377-2.275,4.418-2.543c0.205-0.03,0.405-0.055,0.601-0.079c0.68-0.092,0.734-0.285,1.352-0.447
			c0.477,1.021,0.977,1.682,1.774,1.893c1.296,0.359,0.755-0.072,0.659-0.406c-0.208-0.707-0.175-1.47,0.507-2.007
			c0.537-0.431,2.375-0.896,3.267-0.688c-0.166,1.438,0.39,2.228,1.249,2.861c0.188,0.14,0.411,0.372,0.679,0.419
			c0.08,0.014,0.236-0.016,0.245-0.016c0.025-0.361-0.224-0.723-0.277-1.169c-0.186-1.474,0.861-1.945,1.932-2.217
			c0.546-0.142,1.49-0.223,2.099-0.082c-0.123,1.108,0.161,2.117,0.685,2.782c0.054-0.354,0.104-0.826,0.283-1.092
			c0.506-0.762,1.667-1.698,2.817-1.774c1.072-0.064,2.143,0.201,2.986,0.365c0.084,0.021,0.169,0.021,0.253,0.028v0.008
			c0.029,0.002,0.056,0,0.08,0.002c0.058,0.008,0.114,0.016,0.174,0.017l0.045,0.015c0.84,0.036,1.595-0.242,2.387-0.391
			c1.88-0.349,3.677,0.525,4.434,1.773c0.139,0.25,0.144,0.263,0.232,0.592l0.134,0.42c0.479-0.766,0.562-1.592,0.562-2.785
			c0.623-0.158,1.679-0.05,2.338,0.122c1.444,0.37,2.156,1.541,1.372,3.104c0.017,0.004-0.226,0.376,0.325,0.28
			c1.206-0.21,2.076-1.893,1.896-3.266c0.15-0.036,0.456-0.113,0.723-0.077c1.51,0.177,3.615,0.749,3.061,2.578l-0.199,0.765
			c1.595,0.091,2.38-1.412,2.623-1.971c0.097-0.294,0.215,0.045,0.936,0.289v0.003c0.053,0.016,0.105,0.025,0.153,0.041
			c0.021,0.005,0.041,0.014,0.065,0.021v-0.006c0.134,0.038,0.282,0.069,0.462,0.093c2.151,0.277,4.397,0.413,4.788,2.621
			c0.424-0.205,0.536-0.597,0.772-0.969c1.902,0.885,5.27,0.956,7.327,0.09c1.103-0.428,2.108-1.354,2.782-2.229
			c0.271-0.343,0.542-0.854,0.688-1.291C90.835,40.967,91.159,40.098,90.977,39.935z M66.028,20.23
			c0.092-0.066,0.238-0.182,0.362-0.203c0.587-0.105,0.52,0.271,0.481,0.562C66.497,20.54,65.469,20.62,66.028,20.23z
			 M65.748,22.933c-0.292-0.489,0.185-1.158,0.722-1.252c0.118-0.022,0.32,0.035,0.363,0.041c0,0,0.036,0.21,0,0.317
			C66.7,22.421,66.139,22.795,65.748,22.933z M67.038,25.146c-0.604,0.062,0.021-1.153,0.23-1.21
			C68.145,23.71,67.723,25.077,67.038,25.146z M69.014,25.754c0.026-0.285,0.163-1.203,0.562-1.214
			c0.081-0.001,0.166,0.076,0.199,0.124C70.149,25.173,69.358,25.621,69.014,25.754z M40.512,22.202
			c0.167,0.233,0.271,0.645,0.12,0.731c-0.145,0.095-1.013-0.451-1.198-1c-0.078-0.243,0.074-0.252,0.208-0.252
			C40.139,21.747,40.284,21.888,40.512,22.202z M39.543,20.027c0.665-0.13,0.943,0.36,0.925,0.446
			c0.014,0.269-0.406-0.121-0.748,0.06C39.288,20.773,39.312,20.212,39.543,20.027z M38.819,23.936
			c0.46-0.07,0.862,1.148,0.725,1.21C38.968,25.388,38.077,24.052,38.819,23.936z M36.642,24.54
			c0.288-0.005,0.394,0.172,0.482,0.404c0.247,0.628,0.292,0.9-0.043,0.772c-0.181-0.068-0.551-0.389-0.612-0.717
			C36.432,24.831,36.493,24.616,36.642,24.54z M42.768,37.68c-0.37-0.188-0.68-0.322-1.128-0.441
			c0.039-0.165,0.021-0.188,0.087-0.279c0.022-0.051,0.097-0.15,0.157-0.168C42.564,36.635,42.73,37.279,42.768,37.68z
			 M41.64,34.861c0.028-0.125,0.309-0.271,0.444-0.278c0.653-0.078,1.095,0.512,0.969,1.004c-0.426-0.174-0.798-0.272-1.25-0.161
			C41.741,35.299,41.583,35.106,41.64,34.861z M29.792,25.829c0.379-0.359,0.725,0.029,2.538-0.803
			c-0.581,0.472-1.777,1.127-1.772,1.17C30.84,28.313,28.023,27.502,29.792,25.829z M30.113,27.964
			c0.687-0.173,0.863-0.729,1.33-1.084c0.532-0.412,1.321-0.746,2.181-0.808c1.422-0.107,2.434,0.478,3.201,1.028
			c1.798,1.282,1.317,4.613-1.105,4.982c0,0.206-0.048,1.451,0.403,1.808c0.221,0.022,0.619-0.086,1.168,0.364
			c0.676,0.558,0.429,0.843,0.686,1.05c0.688,0.553,1.87-0.667,2.215-0.928c0.168-0.122,0.619-0.319,0.889-0.207
			c0.038,0.021,0.061,0.152,0.077,0.171c-0.077,0.101-0.134,0.146-0.199,0.278c-0.187,0.356-0.16,0.795,0.058,0.989
			c0.295,0.265,0.581,0.383,0.507,0.578c-0.014,0.118-0.221,0.25-0.438,0.444c-0.261,0.236-0.096,0.809-0.287,0.77
			c-2.153,0.2-2.826-1.47-4.52-1.535c0.325,0.494,0.224,0.634,0.124,1.011c-0.502-0.105-0.947-0.075-1.29,0.158
			c-0.285,0.188-0.347,0.486-0.403,0.812c-0.807-0.207-1.159-0.469-1.535-1.092c-1.256-2.124,0.639-3.154,0.531-5.441
			c0,0,0.075-1.008-0.442-1.008c-0.528,0-1.387,0.246-2.222,0c-0.542-0.163-1.762-0.573-1.974-1.451
			C28.673,27.248,29.315,28.167,30.113,27.964z M36.056,38.486c-0.424-0.039-0.667-0.271-0.687-0.563
			c-0.051-0.588,0.812-0.676,0.8-0.272c-0.005,0.173,0.135,0.327,0.274,0.491C36.711,38.441,36.359,38.507,36.056,38.486z
			 M22.295,39.375c-0.085-0.383-0.268-1.121-0.062-1.309c0.29-0.079,0.805-0.291,1.068-0.526c0.35-0.312,0.472-0.382,0.708-0.904
			c0.034-0.086,0.081-0.229,0.14-0.285c2.302,1.291,4.437,0.194,5.158-1.898l0.002,0.002c0.01-0.026,0.019-0.058,0.024-0.083v-0.002
			c0.036-0.104,0.068-0.205,0.095-0.311c0.299-1.229,0.05-2.796-0.121-3.914c0.473,0.114,0.58,0.436,0.97,0.604
			c0.823,0.354,1.922,0.36,2.857,0.36c0.101,0.246,0.077,0.354,0.038,0.604c-0.013,0.091-0.03,0.246-0.038,0.281
			c-0.01,0.052-0.041,0.124-0.041,0.124c-0.028,0.153-0.199,0.684-0.199,0.684c-0.497,1.445-1.434,2.765-0.285,4.231
			c0.109,0.146,0.25,0.284,0.041,0.443c-0.091,0.074-0.269,0.128-0.366,0.162c-0.411,0.146-0.854,0.305-1.325,0.41
			c-0.856,0.202-1.809,0.263-2.903-0.129c-0.375-0.136-0.549-0.413-0.966-0.563c-0.146,0.495,0.152,1.517,0.04,1.574
			c-0.525,0.285-0.951,0.257-1.528,0.407c-0.186,0.042-0.421,0.149-0.669,0.143c-0.186-0.317-0.366-0.543-0.784-0.71
			C23.603,38.544,22.845,39.04,22.295,39.375z M25.54,41.611c-0.014,0-0.087,0.104-0.104,0.104c-0.139,0-0.413-0.466-0.604-0.472
			c-0.422-0.015-0.823,0.043-0.684-0.54c0.003-0.031,0.171-0.231,0.198-0.239C25.016,40.25,25.52,41.313,25.54,41.611z
			 M22.839,42.417c0.477-0.32,1.407,0.971,0.743,1.478c-0.205,0.137-0.153-0.263-0.442-0.566
			C22.812,42.988,22.48,42.664,22.839,42.417z M19.231,42.032c0.333-0.12,0.823,0.034,0.768,0.167
			c-0.417,0.377-0.498,0.554-0.563,1.16C19.233,43.408,18.582,42.282,19.231,42.032z M24.449,44.391
			c-1.209,0.718-3.574,0.399-4.482,0.056c-2.354-0.896-3.67-2.651-3.757-3.336c0.006-0.144,0.815,0.297,1.169,0.322
			c0.793,0.05,0.932,0.473,1.023,0.563c0.118,0.227,0.011,0.712,0.187,1.006c0.271,0.53,0.632,0.87,1.268,0.906
			c0.054-0.254-0.073-0.442,0.319-1.007c0.495-0.695,0.755,0.028,0.948,0.179c0.187,0.119,0.297,0.337,1.002,0.4
			c0.495,0.042,0.928,0.238,1.137,1.134c0.238,0.074,1.233-0.92,0.843-1.692c-0.155-0.323-0.194-0.636-0.015-0.944
			c0.085-0.157,0.672-0.253,0.957,0.216c0.225,0.367,0.227,0.467,0.454,0.202c0.609-0.86,0.494-1.766-0.093-2.282
			c-0.366-0.192,0.405-0.389,0.98-0.455c0.334-0.034,1.339,0.131,1.905,0.486c0.309,0.216,1.115,0.299,0.708,0.521
			c-0.475,0.227-1.551,0.958-1.924,1.438C26.068,43.418,25.076,44.024,24.449,44.391z M32.693,41.592
			c-0.408,0.209-0.84,0.331-1.334,0.413c-0.249,0.043-0.508,0.082-0.802,0.108c-1.671,0.178-2.723,0.818-3.604,2.661
			c-0.087,0.166-0.75-1.188,0.589-2.672c0.771-0.863,2.669-1.376,3.593-1.89c0.028-0.009,0.048-0.021,0.069-0.031
			c-0.021,0-0.052,0-0.069,0c-1.783,0.07-3.339-0.559-3.683-2.139c0.691,0.517,1.524,0.692,2.66,0.806
			c0.307,0.032,0.595-0.002,0.886-0.068v0.003c0.012-0.003,0.023-0.004,0.039-0.012c0.008,0,0.025,0,0.034,0v-0.007
			c0.498-0.112,0.992-0.302,1.539-0.417c1.116-0.231,2.224-0.133,2.667,0.424c0.343,0.428-0.223,0.49-0.483,0.685
			C33.972,40.042,33.61,41.111,32.693,41.592z M35.349,41.996c-0.251,0.904-0.199,1.156,0.031,1.578
			c0.241,0.424,0.301,0.679-0.277,0.333c-1.694-0.999-1.496-3.09,0.131-4.31c0.921-0.69,2.014-0.79,2.334-1.027
			c0.03-0.113-0.516-0.406-0.662-0.664c-0.21-0.372-0.112-0.868,0.383-0.946c0.551-0.102,1.016,0.354,1.307,0.536
			c0.499,0.319,2.262,1.284,2.988,0.646c0.434-0.382,1.017-0.107,0.83,0.069c-1.226,0.405-1.527,1.235-2.462,1.604
			C38.418,40.354,35.781,40.489,35.349,41.996z M60.139,42.354c-1.338-1.229-2.232-2.337-5.039-2.136
			c-0.504,0.038-0.834,0.053-1.326,0.258c-0.348,0.167-0.579,0.182-0.912,0.131c-0.208-0.042-0.458-0.109-0.802-0.201
			c-1.783-0.491-3.653,0.073-4.295,0.485c-0.371,0.231-1.171,0.838-1.344,1.111c-0.059,0.062-0.105,0.127-0.26,0.298
			c-0.071-0.133-0.099-0.298-0.032-0.987c0.148-0.99,1.063-1.899,1.683-2.381c1.18-0.923,2.729-1.232,4.668-1.405
			c0.131-0.01,0.454-0.015,0.589-0.029c0.516-0.03,0.968-0.058,1.392,0.016c2.318,0.318,4.561,1.263,5.483,3.229
			C60.151,41.214,60.266,41.779,60.139,42.354z M86.664,42.075c0.953-0.107,0.61,0.896,0.365,1.253
			c-0.029,0.031-0.101,0.088-0.134,0.089c-0.038,0.002-0.027-0.062-0.032-0.089c-0.006-0.253,0.017-0.466-0.081-0.65
			c-0.089-0.177-0.318-0.327-0.44-0.521C86.438,42.14,86.589,42.081,86.664,42.075z M83.243,42.437
			c0.919-0.1-0.42,1.411-0.446,1.456C82.515,43.418,82.537,42.51,83.243,42.437z M82.194,36.434
			c0.327,0.707,0.657,1.215,1.402,1.487c0.172,0.064,0.406,0.145,0.57,0.21c-0.071,0.369-0.093,0.846-0.161,1.203
			c-0.654-0.344-1.618-0.865-2.34-0.242c-0.133,0.115-0.263,0.301-0.355,0.442c-0.346-0.089-2.088-0.465-2.145-0.647
			c-0.09-0.309,0.204-1.053,0.04-1.529c-0.413,0.156-0.586,0.421-0.958,0.563c-1.038,0.396-2.414,0.327-3.521-0.012
			c-0.458-0.136-0.881-0.325-1.201-0.553c0.358-0.767,0.986-1.309,0.725-2.456c-0.264-1.159-1.445-2.356-1.047-3.709
			c0.682-0.157,1.537-0.013,2.261-0.202c0.613-0.165,0.942-0.589,1.365-0.767l0.085-0.043c0.141,0-0.057-0.001,0.038,0.043
			c0,0,0.107,0.123,0,0.123c-0.059,0.375-0.135,0.777-0.161,1.164c-0.097,1.171,0.043,2.227,0.361,3.099l-0.015,0.012
			c0.015,0.034,0.039,0.067,0.046,0.104c0.017,0.024,0.021,0.057,0.028,0.087l0.013-0.005
			C77.997,36.699,79.714,37.601,82.194,36.434z M81.265,41.433c-0.362,0.479-0.375,0.05-0.402,0.079
			c-0.037-0.45,0.291-0.937,0.84-1.008c0.172-0.025,0.379,0.02,0.409,0.119C82.372,41.45,81.429,41.188,81.265,41.433z
			 M75.054,25.508c1.031,0.281,1.674,0.172,1.979,1.175c0.066,0,0.044,0.177,0.041,0.235c-0.029,0.313-0.34,0.618-0.77,0.523
			c-0.427-0.1-0.562-0.659-0.479-1.168c-0.519-0.361-1.065-0.707-1.573-1.088C74.546,25.279,74.804,25.441,75.054,25.508z
			 M64.778,36.065c0.042-0.419,0.958-0.419,0.604-1.405c-0.062-0.177-0.14-0.241-0.241-0.368c0.41-0.143,0.565-0.145,0.933,0.086
			c0.311,0.205,2.023,1.758,2.414,0.682c0.218-0.619,0.702-1.246,1.892-1.322c0.097-0.286,0.255-1.322,0.279-1.505
			c-0.426-0.087-2.148-0.706-2.229-2.858c-0.062-1.799,1.798-3.221,3.81-3.301c0.921-0.039,1.748,0.271,2.339,0.61
			c0.956,0.543,0.797,1.4,2.413,1.244c0.721-0.069,0.171,1.179,0.043,1.37c-0.418,0.618-1.289,0.876-2.177,1.092
			c-0.82,0.188-1.814-0.312-2.015,0.036c-0.754,1.318,0.628,3.601,0.686,4.835c0.05,1.128-0.588,2.074-1.333,2.421
			c-0.342,0.167-0.638,0.081-0.603,0.081c-0.166-0.855-0.758-1.026-1.694-0.886c-0.023-0.089-0.098-0.171-0.122-0.36
			c0.008-0.221,0.171-0.47,0.244-0.688c-1.377,0.055-3.002,2.001-4.512,1.573c-0.219-0.062-0.126-0.237-0.167-0.485
			C65.28,36.54,64.746,36.421,64.778,36.065z M70.3,38.489c-1.051,0.146-0.033-1.073,0.042-1.088
			C71.129,37.262,71.085,38.382,70.3,38.489z M63.243,35.586c-0.042-0.261-0.038-0.581,0.206-0.765
			c0.135-0.107,0.438-0.239,0.646-0.239s0.528,0.134,0.562,0.319c0.021,0.109-0.065,0.342-0.08,0.443
			C64.062,35.378,63.665,35.415,63.243,35.586z M64.011,36.792c0.266-0.05,0.482,0.019,0.564,0.168
			c0.042,0.069,0.047,0.114,0.079,0.24c-0.415,0.127-0.733,0.314-1.047,0.525C63.485,37.383,63.565,36.887,64.011,36.792z
			 M71.917,43.163c-0.196,0.305-0.565,0.825-1.007,0.842c-0.104-0.001-0.03-0.178,0.036-0.396c0.234-0.508,0.19-1.079,0-1.577
			c-0.559-1.471-2.312-1.614-3.877-2.004c-0.592-0.148-1.157-0.444-1.619-0.745c-0.516-0.39-0.877-0.887-1.604-1.177
			c0.065-0.07,0.326-0.154,0.422-0.145c0.269,0.041,0.413,0.25,0.63,0.323c0.886,0.305,2.366-0.499,2.904-0.808
			c0.284-0.159,0.52-0.487,0.931-0.52c0.486-0.044,0.873,0.274,0.723,0.767c-0.126,0.415-0.529,0.515-0.723,0.882
			c0.449,0.177,0.998,0.256,1.446,0.443C71.58,39.646,73.014,41.412,71.917,43.163z M79.408,44.69
			c-0.44-0.816-0.979-1.569-1.771-2.057c-0.951-0.568-2.521-0.4-3.667-0.841c-0.021-0.007-0.037-0.015-0.061-0.023
			c-1.168-0.493-1.498-1.919-2.604-2.435c-0.777-0.367-0.373-0.631,0.202-0.847c1.224-0.468,2.004-0.194,2.827,0.071
			c0.008,0.008,0.012,0.008,0.019,0.01c0.037,0.01,0.079,0.022,0.123,0.037v-0.004c0.332,0.109,0.681,0.212,1.066,0.246
			c0.801,0.083,1.771-0.027,2.375-0.242c0.238-0.08,0.568-0.415,0.808-0.441c0.241-0.032,0.042,0.283,0.021,0.338
			c-0.621,1.208-1.97,1.766-3.772,1.643v0.115C76.778,40.817,80.292,42.08,79.408,44.69z M82.796,44.775
			c-1.733-0.284-3.206-2.292-3.991-3.1c-0.582-0.602-1.679-0.979-1.53-1.211c0.69-0.271,1.376-0.663,2.172-0.769
			c0.634-0.077,1.051,0.207,1.407,0.376c-0.144,0.133-0.185,0.215-0.28,0.393c-0.142,0.273-0.224,0.822-0.153,1.165
			c0.055,0.269,0.175,0.534,0.321,0.725c0.583,0.783,0.272-0.462,1.049-0.479c0.146-0.009,0.385,0.04,0.443,0.122
			c0.487,0.646-0.909,1.685,0.721,2.659c0.219-0.266,0.343-0.676,0.606-0.889c0.26-0.21,0.586-0.122,0.969-0.243
			c0.399-0.123,0.682-0.438,0.966-0.682c0.146-0.135,0.322-0.175,0.526-0.043c0.311,0.205,0.287,0.896,0.481,1.203
			c0.567-0.159,1.187-0.424,1.289-1.038c0.102-0.618-0.008-0.728,0.319-1.055c0.435-0.423,1.371-0.613,1.977-0.724
			C89.065,43.359,86.23,45.341,82.796,44.775z"/>
	</g>
</g>
<g>
	<path fill="#CC0000" d="M9.456,57.271c-0.766,0.196-1.314,0.314-1.666,0.36c-0.352,0.038-0.716,0.062-1.112,0.062
		c-1.6,0-2.767-0.425-3.495-1.28c-0.729-0.85-1.093-1.923-1.093-3.226c0-0.854,0.159-1.624,0.478-2.303
		c0.319-0.683,0.802-1.213,1.451-1.6c0.65-0.388,1.53-0.582,2.641-0.582c0.934,0,1.86,0.11,2.777,0.332v1.391
		c-0.77-0.26-1.331-0.421-1.665-0.468c-0.343-0.052-0.664-0.076-0.972-0.076c-0.997,0-1.722,0.32-2.164,0.975
		c-0.438,0.648-0.659,1.433-0.659,2.355c0,1.011,0.259,1.812,0.782,2.405c0.521,0.595,1.253,0.896,2.201,0.896
		c0.205,0,0.444-0.032,0.715-0.09v-2.821h1.781V57.271z"/>
	<path fill="#CC0000" d="M16.261,57.271c-0.807,0.231-1.577,0.351-2.302,0.351c-0.686,0-1.285-0.126-1.805-0.385
		c-0.515-0.255-0.91-0.654-1.188-1.196c-0.281-0.552-0.419-1.142-0.419-1.777c0-0.597,0.119-1.142,0.354-1.646
		c0.234-0.502,0.582-0.896,1.032-1.188c0.447-0.291,1.004-0.434,1.662-0.434c0.814,0,1.453,0.253,1.941,0.773
		c0.481,0.517,0.723,1.479,0.723,2.892h-3.914c0.037,0.429,0.133,0.764,0.292,1.012c0.154,0.247,0.364,0.441,0.627,0.59
		c0.265,0.142,0.62,0.212,1.062,0.212c0.574,0,1.215-0.129,1.933-0.391L16.261,57.271L16.261,57.271z M12.313,53.688h2.271
		c0-0.579-0.097-0.99-0.289-1.246c-0.195-0.249-0.445-0.374-0.754-0.374c-0.338,0-0.608,0.137-0.826,0.411
		C12.5,52.753,12.363,53.157,12.313,53.688z"/>
	<path fill="#CC0000" d="M17.463,57.481v-6.344h1.639v1.19c0.217-0.384,0.501-0.702,0.85-0.957c0.349-0.252,0.777-0.376,1.291-0.376
		c0.304,0,0.57,0.04,0.799,0.143c0.227,0.091,0.426,0.237,0.6,0.437c0.178,0.204,0.291,0.454,0.341,0.755
		c0.317-0.474,0.631-0.819,0.96-1.024c0.323-0.204,0.716-0.309,1.181-0.309c0.518,0,0.938,0.148,1.257,0.453
		c0.32,0.304,0.481,0.788,0.481,1.463v4.569H25.22V53.46c0-0.475-0.078-0.778-0.227-0.917c-0.154-0.142-0.321-0.21-0.514-0.21
		c-0.254,0-0.508,0.092-0.759,0.277c-0.253,0.188-0.501,0.467-0.74,0.835v4.035h-1.64v-4.017c0-0.471-0.076-0.774-0.221-0.92
		c-0.149-0.142-0.33-0.212-0.539-0.212c-0.244,0-0.497,0.092-0.744,0.275c-0.249,0.186-0.491,0.462-0.735,0.837v4.035h-1.639V57.481
		z"/>
	<path fill="#CC0000" d="M33.568,57.271c-0.809,0.231-1.579,0.351-2.306,0.351c-0.682,0-1.284-0.126-1.8-0.385
		c-0.518-0.255-0.91-0.654-1.193-1.196c-0.274-0.552-0.417-1.142-0.417-1.777c0-0.597,0.119-1.142,0.358-1.646
		c0.236-0.502,0.576-0.896,1.031-1.188c0.448-0.291,1.004-0.434,1.661-0.434c0.812,0,1.458,0.253,1.94,0.773
		c0.484,0.517,0.725,1.479,0.725,2.892h-3.915c0.041,0.429,0.137,0.764,0.291,1.012c0.154,0.247,0.363,0.441,0.631,0.59
		c0.266,0.142,0.614,0.212,1.06,0.212c0.573,0,1.216-0.129,1.934-0.391V57.271z M29.619,53.688h2.276c0-0.579-0.1-0.99-0.292-1.246
		c-0.199-0.249-0.445-0.374-0.756-0.374c-0.334,0-0.611,0.137-0.823,0.411C29.806,52.753,29.67,53.157,29.619,53.688z"/>
	<path fill="#CC0000" d="M40.155,57.271c-0.807,0.231-1.576,0.351-2.301,0.351c-0.686,0-1.289-0.126-1.804-0.385
		c-0.518-0.255-0.912-0.654-1.189-1.196c-0.28-0.552-0.415-1.142-0.415-1.777c0-0.597,0.115-1.142,0.351-1.646
		c0.241-0.502,0.58-0.896,1.029-1.188c0.452-0.291,1.009-0.434,1.669-0.434c0.808,0,1.451,0.253,1.934,0.773
		c0.483,0.517,0.728,1.479,0.728,2.892h-3.913c0.035,0.429,0.133,0.764,0.29,1.012c0.155,0.247,0.363,0.441,0.63,0.59
		c0.263,0.142,0.617,0.212,1.062,0.212c0.565,0,1.211-0.129,1.931-0.391L40.155,57.271L40.155,57.271z M36.207,53.688h2.271
		c0-0.579-0.098-0.99-0.29-1.246c-0.194-0.249-0.447-0.374-0.755-0.374c-0.334,0-0.61,0.137-0.823,0.411
		C36.396,52.753,36.259,53.157,36.207,53.688z"/>
	<path fill="#CC0000" d="M41.476,57.481v-6.344h1.709v1.188c0.312-0.485,0.652-0.831,1.026-1.032
		c0.372-0.201,0.753-0.299,1.144-0.299c0.498,0,0.932,0.158,1.29,0.479c0.361,0.321,0.543,0.83,0.543,1.521v4.485h-1.712v-4.068
		c0-0.344-0.029-0.58-0.097-0.703c-0.062-0.121-0.148-0.219-0.26-0.277c-0.111-0.065-0.23-0.099-0.369-0.099
		c-0.238,0-0.48,0.08-0.736,0.232c-0.254,0.153-0.533,0.462-0.829,0.918v3.997L41.476,57.481L41.476,57.481z"/>
	<path fill="#CC0000" d="M52.046,57.448c-0.413,0.112-0.73,0.174-0.969,0.174c-0.559,0-0.994-0.081-1.3-0.24
		c-0.31-0.154-0.542-0.367-0.694-0.637c-0.153-0.272-0.233-0.672-0.233-1.198V52.21h-0.698v-1.072h0.698v-1.078l1.714-0.198v1.276
		h1.34v1.072h-1.34v3.104c0,0.456,0.077,0.764,0.242,0.921c0.162,0.162,0.403,0.238,0.714,0.238c0.142,0,0.32-0.021,0.526-0.066
		V57.448z"/>
	<path fill="#CC0000" d="M58.317,57.271c-0.809,0.231-1.576,0.351-2.301,0.351c-0.688,0-1.288-0.126-1.802-0.385
		c-0.521-0.255-0.915-0.654-1.196-1.196c-0.275-0.552-0.413-1.142-0.413-1.777c0-0.597,0.12-1.142,0.353-1.646
		c0.238-0.502,0.581-0.896,1.029-1.188c0.451-0.291,1.01-0.434,1.664-0.434c0.812,0,1.458,0.253,1.94,0.773
		c0.48,0.517,0.725,1.479,0.725,2.892h-3.911c0.036,0.429,0.134,0.764,0.291,1.012c0.152,0.247,0.363,0.441,0.626,0.59
		c0.266,0.142,0.617,0.212,1.062,0.212c0.573,0,1.214-0.129,1.933-0.391V57.271z M54.368,53.688h2.273
		c0-0.579-0.097-0.99-0.292-1.246c-0.192-0.249-0.443-0.374-0.751-0.374c-0.337,0-0.608,0.137-0.826,0.411
		C54.559,52.753,54.421,53.157,54.368,53.688z"/>
	<path fill="#CC0000" d="M62.879,48.915h1.773v5.253c0,0.944,0.166,1.57,0.483,1.881c0.32,0.309,0.742,0.465,1.253,0.465
		c0.505,0,0.906-0.153,1.208-0.456c0.295-0.308,0.443-0.896,0.443-1.766v-5.377h1.556v5.26c0,0.986-0.125,1.702-0.377,2.134
		c-0.248,0.429-0.608,0.767-1.077,1.013c-0.474,0.246-1.064,0.373-1.787,0.373c-0.713,0-1.318-0.115-1.829-0.346
		c-0.506-0.232-0.907-0.571-1.206-1.025c-0.297-0.455-0.44-1.178-0.44-2.165V48.915z"/>
	<path fill="#CC0000" d="M74.633,57.448c-0.404,0.112-0.729,0.174-0.963,0.174c-0.558,0-0.991-0.081-1.303-0.24
		c-0.307-0.154-0.534-0.367-0.691-0.637c-0.155-0.272-0.231-0.672-0.231-1.198V52.21h-0.702v-1.072h0.702v-1.078l1.707-0.198v1.276
		H74.5v1.072h-1.349v3.104c0,0.456,0.086,0.764,0.245,0.921c0.163,0.162,0.401,0.238,0.712,0.238c0.15,0,0.322-0.021,0.524-0.066
		V57.448z"/>
	<path fill="#CC0000" d="M75.942,57.481v-6.344h1.709v1.195c0.206-0.409,0.482-0.735,0.843-0.981
		c0.351-0.233,0.747-0.355,1.18-0.355c0.105,0,0.213,0.006,0.319,0.019v1.531c-0.235-0.083-0.464-0.124-0.677-0.124
		c-0.34,0-0.646,0.085-0.923,0.26c-0.285,0.173-0.525,0.435-0.742,0.779v4.021L75.942,57.481L75.942,57.481z"/>
	<path fill="#CC0000" d="M86.178,57.271c-0.811,0.231-1.577,0.351-2.302,0.351c-0.687,0-1.287-0.126-1.807-0.385
		c-0.519-0.255-0.911-0.654-1.185-1.196c-0.283-0.552-0.418-1.142-0.418-1.777c0-0.597,0.114-1.142,0.35-1.646
		c0.236-0.502,0.585-0.896,1.027-1.188c0.454-0.291,1.01-0.434,1.673-0.434c0.808,0,1.456,0.253,1.932,0.773
		c0.485,0.517,0.729,1.479,0.729,2.892h-3.915c0.04,0.429,0.136,0.764,0.291,1.012c0.153,0.247,0.365,0.441,0.63,0.59
		c0.262,0.142,0.619,0.212,1.062,0.212c0.572,0,1.215-0.129,1.934-0.391V57.271L86.178,57.271z M82.228,53.688h2.273
		c0-0.579-0.098-0.99-0.291-1.246c-0.193-0.249-0.447-0.374-0.755-0.374c-0.333,0-0.608,0.137-0.823,0.411
		C82.418,52.753,82.284,53.157,82.228,53.688z"/>
	<path fill="#CC0000" d="M92.33,57.336c-0.705,0.192-1.363,0.285-1.971,0.285c-1.075,0-1.891-0.32-2.432-0.963
		c-0.545-0.639-0.816-1.426-0.816-2.358c0-0.976,0.287-1.771,0.865-2.389c0.577-0.612,1.424-0.916,2.54-0.916
		c0.516,0,1.104,0.08,1.775,0.245v1.232c-0.696-0.224-1.25-0.333-1.662-0.333c-0.592,0-1.023,0.224-1.292,0.667
		c-0.277,0.445-0.412,0.938-0.412,1.479c0,0.413,0.079,0.801,0.237,1.154c0.153,0.358,0.373,0.622,0.651,0.787
		c0.281,0.166,0.6,0.245,0.948,0.245c0.506,0,1.03-0.104,1.565-0.314v1.179H92.33z"/>
	<path fill="#CC0000" d="M93.57,57.481V48.35h1.709v3.977c0.311-0.485,0.647-0.831,1.023-1.032c0.371-0.201,0.757-0.299,1.142-0.299
		c0.505,0,0.937,0.158,1.295,0.479c0.356,0.321,0.54,0.83,0.54,1.521v4.485h-1.71v-4.068c0-0.344-0.03-0.58-0.094-0.703
		c-0.063-0.121-0.149-0.219-0.264-0.277c-0.108-0.065-0.231-0.099-0.366-0.099c-0.237,0-0.482,0.08-0.738,0.232
		c-0.255,0.153-0.531,0.462-0.828,0.918v3.997H93.57z"/>
	<path fill="#CC0000" d="M104.137,57.448c-0.414,0.112-0.729,0.174-0.969,0.174c-0.558,0-0.989-0.081-1.299-0.24
		c-0.312-0.154-0.537-0.367-0.695-0.637c-0.152-0.272-0.23-0.672-0.23-1.198V52.21h-0.706v-1.072h0.706v-1.078l1.71-0.198v1.276
		h1.341v1.072h-1.341v3.104c0,0.456,0.081,0.764,0.242,0.921c0.162,0.162,0.398,0.238,0.712,0.238c0.148,0,0.323-0.021,0.529-0.066
		V57.448z"/>
</g>
</svg>
